<svg width="20" height="20" viewBox="0 0 20 20" fill="none" xmlns="http://www.w3.org/2000/svg">
<g clip-path="url(#clip0)">
<path d="M-4.37114e-07 10C-1.95705e-07 15.5228 4.47721 20 10 20C15.5228 20 20 15.5228 20 10C20 4.47721 15.5228 -6.78523e-07 10 -4.37114e-07C4.47982 0.00618343 0.00618424 4.47982 -4.37114e-07 10ZM19.3333 10C19.3333 15.1546 15.1546 19.3333 10 19.3333C4.84538 19.3333 0.666666 15.1546 0.666666 10C0.666666 4.84538 4.84538 0.666666 10 0.666666C15.1522 0.672525 19.3275 4.84782 19.3333 10Z" fill="#252525"/>
<path d="M6.43054 8.43127C6.3005 8.56148 6.3005 8.77242 6.43054 8.90263L9.76388 12.236C9.89408 12.366 10.105 12.366 10.2352 12.236L13.5686 8.90263C13.6949 8.77177 13.6931 8.56392 13.5645 8.43534C13.4359 8.30676 13.2281 8.30497 13.0972 8.43127L9.99955 11.5289L6.9019 8.43127C6.77169 8.30123 6.56075 8.30123 6.43054 8.43127Z" fill="#252525"/>
</g>
<defs>
<clipPath id="clip0">
<rect width="20" height="20" fill="white" transform="translate(0 20) rotate(-90)"/>
</clipPath>
</defs>
</svg>
